<?xml version="1.0" encoding="utf-8"?>
<!-- Generator: Adobe Illustrator 22.1.0, SVG Export Plug-In . SVG Version: 6.00 Build 0)  -->
<svg version="1.1" baseProfile="tiny" id="Ebene_1" xmlns="http://www.w3.org/2000/svg"
     x="0px" y="0px" viewBox="0 0 16 16" xml:space="preserve">
<g>
	<path fill="#3592C4" d="M0.7,12.2l1.7-8.4h1.8L3.6,6.9C4,6.3,4.6,6,5.3,6c1.2,0,2,0.8,2,2c0,0.2,0,0.4-0.1,0.6l-0.3,1.5
		c0,0.1,0,0.2,0,0.3c0,0.2,0.1,0.4,0.3,0.4l0.2,0L7,12.1c-0.1,0.1-0.4,0.1-0.7,0.1c-0.8,0-1.4-0.5-1.4-1.3c0-0.1,0-0.4,0.1-0.7
		l0.3-1.4c0-0.1,0-0.3,0-0.3c0-0.5-0.3-0.9-0.9-0.9c-0.7,0-1.2,0.5-1.3,1.2l-0.7,3.4H0.7z"/>
</g>
    <g>
	<path fill="#AFB1B3" d="M7.8,12.2l1.7-8.4h1.4l-0.6,2.9c0.4-0.5,1-0.7,1.8-0.7s1.4,0.3,2,0.8c0.5,0.5,0.8,1.2,0.8,2
		c0,0.9-0.3,1.7-1,2.4c-0.7,0.7-1.5,1.1-2.4,1.1c-1,0-1.8-0.4-2.1-1l-0.2,0.8H7.8z M11.4,11c0.6,0,1.1-0.2,1.5-0.6s0.6-0.9,0.6-1.4
		c0-1-0.7-1.7-1.8-1.7c-0.6,0-1,0.2-1.4,0.6C9.9,8.4,9.7,8.8,9.7,9.4C9.7,10.3,10.4,11,11.4,11z"/>
</g>
</svg>
