<svg xmlns="http://www.w3.org/2000/svg" viewBox="0 0 16 16">
    <defs>
        <style>.a{isolation:isolate;}.b{fill:#379fd7;}.c{fill:#6f6e6e;}</style>
    </defs>
    <title>hastebin</title>
    <g class="a">
        <g class="a">
            <path class="b"
                  d="M.61,12.17l1.7-8.36h1.8L3.46,6.92A2,2,0,0,1,5.19,6a1.84,1.84,0,0,1,2,2,3.93,3.93,0,0,1-.06.6l-.32,1.46a1.67,1.67,0,0,0,0,.28c0,.24.09.36.3.36h.2L7,12.13a1.93,1.93,0,0,1-.73.08,1.26,1.26,0,0,1-1.37-1.3A4.88,4.88,0,0,1,5,10.16l.29-1.42c0-.08,0-.26,0-.32a.8.8,0,0,0-.9-.85A1.39,1.39,0,0,0,3.08,8.81l-.67,3.36Z"/>
        </g>
        <g class="a">
            <path class="c"
                  d="M7.74,12.17,9.45,3.81h1.4l-.58,2.87A2.22,2.22,0,0,1,12,6a2.72,2.72,0,0,1,2.78,2.82,3.45,3.45,0,0,1-1,2.41,3.21,3.21,0,0,1-2.43,1.07,2.21,2.21,0,0,1-2.06-1l-.18.84ZM11.28,11a2.1,2.1,0,0,0,2.1-2.05,1.62,1.62,0,0,0-1.75-1.66,1.88,1.88,0,0,0-1.42.65,2.09,2.09,0,0,0-.57,1.44A1.55,1.55,0,0,0,11.28,11Z"/>
        </g>
    </g>
</svg>