<svg xmlns="http://www.w3.org/2000/svg" viewBox="0 0 16 16">
    <defs>
        <style>.a{isolation:isolate;}.b{fill:#3592c4;}.c{fill:#afb1b3;}</style>
    </defs>
    <title>hastebin_dark</title>
    <g class="a">
        <path class="b"
              d="M.7,12.17,2.41,3.81h1.8L3.56,6.92A2,2,0,0,1,5.29,6a1.83,1.83,0,0,1,2,2,3,3,0,0,1-.06.6l-.31,1.46a1.86,1.86,0,0,0,0,.28q0,.36.3.36h.21l-.3,1.45a1.93,1.93,0,0,1-.73.08A1.26,1.26,0,0,1,5,10.91a4.88,4.88,0,0,1,.11-.75l.29-1.42c0-.08,0-.26,0-.32a.79.79,0,0,0-.9-.85A1.39,1.39,0,0,0,3.17,8.81L2.5,12.17Z"/>
    </g>
    <g class="a">
        <path class="c"
              d="M7.84,12.17l1.7-8.36H11l-.58,2.87A2.2,2.2,0,0,1,12.13,6a2.73,2.73,0,0,1,2.79,2.82,3.45,3.45,0,0,1-1,2.41,3.23,3.23,0,0,1-2.43,1.07,2.23,2.23,0,0,1-2.07-1l-.18.84ZM11.38,11a2,2,0,0,0,1.49-.62,2,2,0,0,0,.61-1.43,1.63,1.63,0,0,0-1.75-1.66,1.86,1.86,0,0,0-1.42.65,2.09,2.09,0,0,0-.57,1.44A1.54,1.54,0,0,0,11.38,11Z"/>
    </g>
</svg>